# xmcd
#
# Track frame offsets: 
#        150
#        16614
#        30885
#        47569
#        60692
#        71773
#        93613
#        113352
#        133513
#        154951
#        169827
#        186403
#
# Disc length: 2739 seconds
#
# Revision: 0
# Processed by: cddbd v1.5.2PL0 Copyright (c) Steve Scherf et al.
# Submitted via: ExactAudioCopyFreeDBPlugin 1.0
#
DISCID=950ab10c
DTITLE=Kabanaz - Something New, Something Old, Something Better
DYEAR=2008
DGENRE=New Zealand: Country/Blues
TTITLE0=Smooch Shop
TTITLE1=CD Queen
TTITLE2=It's Over
TTITLE3=Joe's Overture
TTITLE4=James' Overture
TTITLE5=Something Better
TTITLE6=Slow
TTITLE7=Pharos
TTITLE8=Move On (Can't Believe You Lied)
TTITLE9=Hang On
TTITLE10=Daisy Blade
TTITLE11=Rob's Overture
EXTD=
EXTT0=
EXTT1=
EXTT2=
EXTT3=
EXTT4=
EXTT5=
EXTT6=
EXTT7=
EXTT8=
EXTT9=
EXTT10=
EXTT11=
PLAYORDER=
